<svg id="visual" viewBox="0 0 900 600" width="900" height="600" xmlns="http://www.w3.org/2000/svg" xmlns:xlink="http://www.w3.org/1999/xlink" version="1.1"><path d="M0 103L50 135C100 167 200 231 300 243C400 255 500 215 600 185C700 155 800 135 850 125L900 115L900 0L850 0C800 0 700 0 600 0C500 0 400 0 300 0C200 0 100 0 50 0L0 0Z" fill="#6b86f1"></path><path d="M0 193L50 231C100 269 200 345 300 354C400 363 500 305 600 261C700 217 800 187 850 172L900 157L900 113L850 123C800 133 700 153 600 183C500 213 400 253 300 241C200 229 100 165 50 133L0 101Z" fill="#5f7bed"></path><path d="M0 223L50 262C100 301 200 379 300 394C400 409 500 361 600 330C700 299 800 285 850 278L900 271L900 155L850 170C800 185 700 215 600 259C500 303 400 361 300 352C200 343 100 267 50 229L0 191Z" fill="#5270e9"></path><path d="M0 361L50 384C100 407 200 453 300 447C400 441 500 383 600 354C700 325 800 325 850 325L900 325L900 269L850 276C800 283 700 297 600 328C500 359 400 407 300 392C200 377 100 299 50 260L0 221Z" fill="#4465e5"></path><path d="M0 601L50 601C100 601 200 601 300 601C400 601 500 601 600 601C700 601 800 601 850 601L900 601L900 323L850 323C800 323 700 323 600 352C500 381 400 439 300 445C200 451 100 405 50 382L0 359Z" fill="#3559e0"></path></svg>