<svg id="visual" viewBox="0 0 900 600" width="900" height="600" xmlns="http://www.w3.org/2000/svg" xmlns:xlink="http://www.w3.org/1999/xlink" version="1.1"><g stroke-width="1" stroke-linejoin="bevel"><path d="M489 285L582 298L536 236Z" fill="#7f98f7" stroke="#7f98f7"></path><path d="M582 298L599 187L536 236Z" fill="#88a0fa" stroke="#88a0fa"></path><path d="M480 138L426 223L536 236Z" fill="#92a9fc" stroke="#92a9fc"></path><path d="M536 236L426 223L489 285Z" fill="#3559e0" stroke="#3559e0"></path><path d="M495 429L596 399L582 298Z" fill="#88a0fa" stroke="#88a0fa"></path><path d="M582 298L710 210L599 187Z" fill="#6b86f1" stroke="#6b86f1"></path><path d="M495 429L582 298L489 285Z" fill="#9cb2ff" stroke="#9cb2ff"></path><path d="M422 406L495 429L489 285Z" fill="#92a9fc" stroke="#92a9fc"></path><path d="M426 223L390 337L489 285Z" fill="#7f98f7" stroke="#7f98f7"></path><path d="M599 187L480 138L536 236Z" fill="#5774eb" stroke="#5774eb"></path><path d="M596 399L692 317L582 298Z" fill="#6b86f1" stroke="#6b86f1"></path><path d="M390 337L422 406L489 285Z" fill="#7f98f7" stroke="#7f98f7"></path><path d="M692 317L710 210L582 298Z" fill="#617dee" stroke="#617dee"></path><path d="M599 187L577 91L480 138Z" fill="#3559e0" stroke="#3559e0"></path><path d="M383 477L511 473L495 429Z" fill="#92a9fc" stroke="#92a9fc"></path><path d="M495 429L511 473L596 399Z" fill="#9cb2ff" stroke="#9cb2ff"></path><path d="M596 399L664 436L692 317Z" fill="#92a9fc" stroke="#92a9fc"></path><path d="M694 123L577 91L599 187Z" fill="#88a0fa" stroke="#88a0fa"></path><path d="M635 521L664 436L596 399Z" fill="#9cb2ff" stroke="#9cb2ff"></path><path d="M322 205L332 260L426 223Z" fill="#5774eb" stroke="#5774eb"></path><path d="M426 223L332 260L390 337Z" fill="#7f98f7" stroke="#7f98f7"></path><path d="M313 410L383 477L422 406Z" fill="#758ff4" stroke="#758ff4"></path><path d="M710 210L694 123L599 187Z" fill="#5774eb" stroke="#5774eb"></path><path d="M370 123L322 205L426 223Z" fill="#9cb2ff" stroke="#9cb2ff"></path><path d="M370 123L426 223L480 138Z" fill="#7f98f7" stroke="#7f98f7"></path><path d="M763 368L766 277L692 317Z" fill="#3559e0" stroke="#3559e0"></path><path d="M692 317L766 277L710 210Z" fill="#7f98f7" stroke="#7f98f7"></path><path d="M710 210L807 196L694 123Z" fill="#617dee" stroke="#617dee"></path><path d="M401 0L370 123L480 138Z" fill="#92a9fc" stroke="#92a9fc"></path><path d="M664 436L763 368L692 317Z" fill="#3559e0" stroke="#3559e0"></path><path d="M422 406L383 477L495 429Z" fill="#7f98f7" stroke="#7f98f7"></path><path d="M313 410L422 406L390 337Z" fill="#758ff4" stroke="#758ff4"></path><path d="M207 325L313 410L332 260Z" fill="#9cb2ff" stroke="#9cb2ff"></path><path d="M332 260L313 410L390 337Z" fill="#617dee" stroke="#617dee"></path><path d="M592 600L635 521L511 473Z" fill="#5774eb" stroke="#5774eb"></path><path d="M511 473L635 521L596 399Z" fill="#7f98f7" stroke="#7f98f7"></path><path d="M664 436L778 474L763 368Z" fill="#617dee" stroke="#617dee"></path><path d="M635 521L684 511L664 436Z" fill="#7f98f7" stroke="#7f98f7"></path><path d="M900 282L807 196L766 277Z" fill="#7f98f7" stroke="#7f98f7"></path><path d="M766 277L807 196L710 210Z" fill="#9cb2ff" stroke="#9cb2ff"></path><path d="M718 0L568 0L577 91Z" fill="#758ff4" stroke="#758ff4"></path><path d="M577 91L503 0L480 138Z" fill="#4162e4" stroke="#4162e4"></path><path d="M718 0L577 91L694 123Z" fill="#9cb2ff" stroke="#9cb2ff"></path><path d="M568 0L503 0L577 91Z" fill="#617dee" stroke="#617dee"></path><path d="M807 196L766 87L694 123Z" fill="#92a9fc" stroke="#92a9fc"></path><path d="M684 511L778 474L664 436Z" fill="#9cb2ff" stroke="#9cb2ff"></path><path d="M763 368L900 282L766 277Z" fill="#5774eb" stroke="#5774eb"></path><path d="M313 410L326 515L383 477Z" fill="#9cb2ff" stroke="#9cb2ff"></path><path d="M475 600L592 600L511 473Z" fill="#9cb2ff" stroke="#9cb2ff"></path><path d="M503 0L401 0L480 138Z" fill="#6b86f1" stroke="#6b86f1"></path><path d="M370 123L284 95L322 205Z" fill="#9cb2ff" stroke="#9cb2ff"></path><path d="M401 0L284 95L370 123Z" fill="#4c6be7" stroke="#4c6be7"></path><path d="M183 201L207 325L332 260Z" fill="#617dee" stroke="#617dee"></path><path d="M475 600L511 473L383 477Z" fill="#7f98f7" stroke="#7f98f7"></path><path d="M635 521L690 600L684 511Z" fill="#5774eb" stroke="#5774eb"></path><path d="M684 511L779 600L778 474Z" fill="#6b86f1" stroke="#6b86f1"></path><path d="M400 600L475 600L383 477Z" fill="#88a0fa" stroke="#88a0fa"></path><path d="M183 201L332 260L322 205Z" fill="#7f98f7" stroke="#7f98f7"></path><path d="M313 410L200 522L326 515Z" fill="#5774eb" stroke="#5774eb"></path><path d="M766 87L718 0L694 123Z" fill="#88a0fa" stroke="#88a0fa"></path><path d="M326 515L400 600L383 477Z" fill="#92a9fc" stroke="#92a9fc"></path><path d="M592 600L690 600L635 521Z" fill="#88a0fa" stroke="#88a0fa"></path><path d="M284 95L183 201L322 205Z" fill="#7f98f7" stroke="#7f98f7"></path><path d="M900 416L900 282L763 368Z" fill="#4c6be7" stroke="#4c6be7"></path><path d="M807 196L900 90L766 87Z" fill="#9cb2ff" stroke="#9cb2ff"></path><path d="M766 87L804 0L718 0Z" fill="#6b86f1" stroke="#6b86f1"></path><path d="M900 282L900 184L807 196Z" fill="#3559e0" stroke="#3559e0"></path><path d="M231 600L317 600L326 515Z" fill="#4162e4" stroke="#4162e4"></path><path d="M326 515L317 600L400 600Z" fill="#5774eb" stroke="#5774eb"></path><path d="M900 516L900 416L778 474Z" fill="#6b86f1" stroke="#6b86f1"></path><path d="M778 474L900 416L763 368Z" fill="#4c6be7" stroke="#4c6be7"></path><path d="M82 312L173 418L207 325Z" fill="#6b86f1" stroke="#6b86f1"></path><path d="M207 325L173 418L313 410Z" fill="#758ff4" stroke="#758ff4"></path><path d="M900 90L804 0L766 87Z" fill="#3559e0" stroke="#3559e0"></path><path d="M401 0L266 0L284 95Z" fill="#92a9fc" stroke="#92a9fc"></path><path d="M284 95L179 105L183 201Z" fill="#5774eb" stroke="#5774eb"></path><path d="M690 600L779 600L684 511Z" fill="#88a0fa" stroke="#88a0fa"></path><path d="M219 0L179 105L284 95Z" fill="#4162e4" stroke="#4162e4"></path><path d="M183 201L136 201L207 325Z" fill="#4c6be7" stroke="#4c6be7"></path><path d="M122 133L136 201L183 201Z" fill="#7f98f7" stroke="#7f98f7"></path><path d="M900 184L900 90L807 196Z" fill="#758ff4" stroke="#758ff4"></path><path d="M173 418L200 522L313 410Z" fill="#7f98f7" stroke="#7f98f7"></path><path d="M266 0L219 0L284 95Z" fill="#7f98f7" stroke="#7f98f7"></path><path d="M179 105L122 133L183 201Z" fill="#88a0fa" stroke="#88a0fa"></path><path d="M779 600L900 516L778 474Z" fill="#9cb2ff" stroke="#9cb2ff"></path><path d="M200 522L231 600L326 515Z" fill="#7f98f7" stroke="#7f98f7"></path><path d="M95 0L122 133L179 105Z" fill="#9cb2ff" stroke="#9cb2ff"></path><path d="M136 201L82 312L207 325Z" fill="#7f98f7" stroke="#7f98f7"></path><path d="M173 418L127 521L200 522Z" fill="#92a9fc" stroke="#92a9fc"></path><path d="M200 522L127 521L231 600Z" fill="#5774eb" stroke="#5774eb"></path><path d="M0 276L82 312L0 230Z" fill="#92a9fc" stroke="#92a9fc"></path><path d="M82 312L97 412L173 418Z" fill="#4c6be7" stroke="#4c6be7"></path><path d="M900 90L900 0L804 0Z" fill="#4c6be7" stroke="#4c6be7"></path><path d="M97 412L127 521L173 418Z" fill="#88a0fa" stroke="#88a0fa"></path><path d="M779 600L900 600L900 516Z" fill="#4162e4" stroke="#4162e4"></path><path d="M219 0L95 0L179 105Z" fill="#3559e0" stroke="#3559e0"></path><path d="M0 230L82 312L136 201Z" fill="#9cb2ff" stroke="#9cb2ff"></path><path d="M0 230L136 201L122 133Z" fill="#4162e4" stroke="#4162e4"></path><path d="M82 312L0 388L97 412Z" fill="#4c6be7" stroke="#4c6be7"></path><path d="M97 412L0 515L127 521Z" fill="#88a0fa" stroke="#88a0fa"></path><path d="M0 94L0 230L122 133Z" fill="#3559e0" stroke="#3559e0"></path><path d="M0 276L0 388L82 312Z" fill="#6b86f1" stroke="#6b86f1"></path><path d="M95 0L0 94L122 133Z" fill="#617dee" stroke="#617dee"></path><path d="M0 515L61 600L127 521Z" fill="#6b86f1" stroke="#6b86f1"></path><path d="M127 521L61 600L231 600Z" fill="#5774eb" stroke="#5774eb"></path><path d="M0 388L0 515L97 412Z" fill="#92a9fc" stroke="#92a9fc"></path><path d="M95 0L0 0L0 94Z" fill="#5774eb" stroke="#5774eb"></path><path d="M0 515L0 600L61 600Z" fill="#6b86f1" stroke="#6b86f1"></path></g></svg>