<svg id="visual" viewBox="0 0 900 600" width="900" height="600" xmlns="http://www.w3.org/2000/svg" xmlns:xlink="http://www.w3.org/1999/xlink" version="1.1"><rect x="0" y="0" width="900" height="600" fill="#002233"></rect><path d="M0 462L21.5 451C43 440 86 418 128.8 417.5C171.7 417 214.3 438 257.2 448.5C300 459 343 459 385.8 465.8C428.7 472.7 471.3 486.3 514.2 496.8C557 507.3 600 514.7 642.8 505.7C685.7 496.7 728.3 471.3 771.2 457.2C814 443 857 440 878.5 438.5L900 437L900 601L878.5 601C857 601 814 601 771.2 601C728.3 601 685.7 601 642.8 601C600 601 557 601 514.2 601C471.3 601 428.7 601 385.8 601C343 601 300 601 257.2 601C214.3 601 171.7 601 128.8 601C86 601 43 601 21.5 601L0 601Z" fill="#0066FF" stroke-linecap="round" stroke-linejoin="miter"></path></svg>