<svg id="visual" viewBox="0 0 900 600" width="900" height="600" xmlns="http://www.w3.org/2000/svg" xmlns:xlink="http://www.w3.org/1999/xlink" version="1.1"><path d="M0 422L16.7 430.3C33.3 438.7 66.7 455.3 100 464.2C133.3 473 166.7 474 200 464C233.3 454 266.7 433 300 422.7C333.3 412.3 366.7 412.7 400 424.5C433.3 436.3 466.7 459.7 500 472.3C533.3 485 566.7 487 600 481.2C633.3 475.3 666.7 461.7 700 454.3C733.3 447 766.7 446 800 445.2C833.3 444.3 866.7 443.7 883.3 443.3L900 443L900 601L883.3 601C866.7 601 833.3 601 800 601C766.7 601 733.3 601 700 601C666.7 601 633.3 601 600 601C566.7 601 533.3 601 500 601C466.7 601 433.3 601 400 601C366.7 601 333.3 601 300 601C266.7 601 233.3 601 200 601C166.7 601 133.3 601 100 601C66.7 601 33.3 601 16.7 601L0 601Z" fill="#9cb2ff"></path><path d="M0 480L16.7 478.7C33.3 477.3 66.7 474.7 100 471C133.3 467.3 166.7 462.7 200 462.5C233.3 462.3 266.7 466.7 300 474.8C333.3 483 366.7 495 400 503.7C433.3 512.3 466.7 517.7 500 510.8C533.3 504 566.7 485 600 476.7C633.3 468.3 666.7 470.7 700 476.3C733.3 482 766.7 491 800 488.8C833.3 486.7 866.7 473.3 883.3 466.7L900 460L900 601L883.3 601C866.7 601 833.3 601 800 601C766.7 601 733.3 601 700 601C666.7 601 633.3 601 600 601C566.7 601 533.3 601 500 601C466.7 601 433.3 601 400 601C366.7 601 333.3 601 300 601C266.7 601 233.3 601 200 601C166.7 601 133.3 601 100 601C66.7 601 33.3 601 16.7 601L0 601Z" fill="#6b86f1"></path><path d="M0 531L16.7 531.7C33.3 532.3 66.7 533.7 100 533.5C133.3 533.3 166.7 531.7 200 533.5C233.3 535.3 266.7 540.7 300 538.8C333.3 537 366.7 528 400 529.5C433.3 531 466.7 543 500 543.2C533.3 543.3 566.7 531.7 600 526C633.3 520.3 666.7 520.7 700 524.7C733.3 528.7 766.7 536.3 800 541.3C833.3 546.3 866.7 548.7 883.3 549.8L900 551L900 601L883.3 601C866.7 601 833.3 601 800 601C766.7 601 733.3 601 700 601C666.7 601 633.3 601 600 601C566.7 601 533.3 601 500 601C466.7 601 433.3 601 400 601C366.7 601 333.3 601 300 601C266.7 601 233.3 601 200 601C166.7 601 133.3 601 100 601C66.7 601 33.3 601 16.7 601L0 601Z" fill="#3559e0"></path></svg>