<svg id="visual" viewBox="0 0 900 600" width="900" height="600" xmlns="http://www.w3.org/2000/svg" xmlns:xlink="http://www.w3.org/1999/xlink" version="1.1"><path d="M0 396L25 394.3C50 392.7 100 389.3 150 377.5C200 365.7 250 345.3 300 351.7C350 358 400 391 450 390C500 389 550 354 600 356C650 358 700 397 750 415C800 433 850 430 875 428.5L900 427L900 601L875 601C850 601 800 601 750 601C700 601 650 601 600 601C550 601 500 601 450 601C400 601 350 601 300 601C250 601 200 601 150 601C100 601 50 601 25 601L0 601Z" fill="#9cb2ff"></path><path d="M0 400L25 405.8C50 411.7 100 423.3 150 433.5C200 443.7 250 452.3 300 460C350 467.7 400 474.3 450 470.5C500 466.7 550 452.3 600 454.3C650 456.3 700 474.7 750 483.5C800 492.3 850 491.7 875 491.3L900 491L900 601L875 601C850 601 800 601 750 601C700 601 650 601 600 601C550 601 500 601 450 601C400 601 350 601 300 601C250 601 200 601 150 601C100 601 50 601 25 601L0 601Z" fill="#6b86f1"></path><path d="M0 553L25 543.5C50 534 100 515 150 512.8C200 510.7 250 525.3 300 529.8C350 534.3 400 528.7 450 523C500 517.3 550 511.7 600 505.5C650 499.3 700 492.7 750 499.5C800 506.3 850 526.7 875 536.8L900 547L900 601L875 601C850 601 800 601 750 601C700 601 650 601 600 601C550 601 500 601 450 601C400 601 350 601 300 601C250 601 200 601 150 601C100 601 50 601 25 601L0 601Z" fill="#3559e0"></path></svg>